<mxfile host="app.diagrams.net" modified="2023-03-17T09:49:53.346Z" agent="5.0 (Windows NT 10.0; Win64; x64) AppleWebKit/537.36 (KHTML, like Gecko) Chrome/111.0.0.0 Safari/537.36" etag="xalRkRSyOyBJRn4W-MLz" version="21.0.6" type="github">
  <diagram id="prtHgNgQTEPvFCAcTncT" name="Page-1">
    <mxGraphModel dx="1050" dy="549" grid="1" gridSize="10" guides="1" tooltips="1" connect="1" arrows="1" fold="1" page="1" pageScale="1" pageWidth="827" pageHeight="1169" math="0" shadow="0">
      <root>
        <mxCell id="0" />
        <mxCell id="1" parent="0" />
        <mxCell id="fGp7b3UGYJZfzKrjClzS-25" style="edgeStyle=orthogonalEdgeStyle;rounded=0;orthogonalLoop=1;jettySize=auto;html=1;exitX=0.5;exitY=1;exitDx=0;exitDy=0;entryX=0.5;entryY=0;entryDx=0;entryDy=0;" edge="1" parent="1" source="fGp7b3UGYJZfzKrjClzS-23" target="fGp7b3UGYJZfzKrjClzS-24">
          <mxGeometry relative="1" as="geometry" />
        </mxCell>
        <mxCell id="fGp7b3UGYJZfzKrjClzS-23" value="创建活动" style="rounded=1;whiteSpace=wrap;html=1;" vertex="1" parent="1">
          <mxGeometry x="90" y="30" width="100" height="40" as="geometry" />
        </mxCell>
        <mxCell id="fGp7b3UGYJZfzKrjClzS-27" style="edgeStyle=orthogonalEdgeStyle;rounded=0;orthogonalLoop=1;jettySize=auto;html=1;exitX=0.5;exitY=1;exitDx=0;exitDy=0;entryX=0.5;entryY=0;entryDx=0;entryDy=0;" edge="1" parent="1" source="fGp7b3UGYJZfzKrjClzS-24" target="fGp7b3UGYJZfzKrjClzS-26">
          <mxGeometry relative="1" as="geometry" />
        </mxCell>
        <mxCell id="fGp7b3UGYJZfzKrjClzS-24" value="添加会员" style="rounded=1;whiteSpace=wrap;html=1;" vertex="1" parent="1">
          <mxGeometry x="90" y="100" width="100" height="40" as="geometry" />
        </mxCell>
        <mxCell id="fGp7b3UGYJZfzKrjClzS-30" style="edgeStyle=orthogonalEdgeStyle;rounded=0;orthogonalLoop=1;jettySize=auto;html=1;entryX=0;entryY=0.5;entryDx=0;entryDy=0;" edge="1" parent="1" source="fGp7b3UGYJZfzKrjClzS-26" target="fGp7b3UGYJZfzKrjClzS-28">
          <mxGeometry relative="1" as="geometry" />
        </mxCell>
        <mxCell id="fGp7b3UGYJZfzKrjClzS-32" value="" style="edgeStyle=orthogonalEdgeStyle;rounded=0;orthogonalLoop=1;jettySize=auto;html=1;" edge="1" parent="1" source="fGp7b3UGYJZfzKrjClzS-26" target="fGp7b3UGYJZfzKrjClzS-31">
          <mxGeometry relative="1" as="geometry" />
        </mxCell>
        <mxCell id="fGp7b3UGYJZfzKrjClzS-26" value="保存数据" style="rounded=1;whiteSpace=wrap;html=1;" vertex="1" parent="1">
          <mxGeometry x="90" y="170" width="100" height="40" as="geometry" />
        </mxCell>
        <mxCell id="fGp7b3UGYJZfzKrjClzS-49" style="edgeStyle=orthogonalEdgeStyle;rounded=0;orthogonalLoop=1;jettySize=auto;html=1;" edge="1" parent="1" source="fGp7b3UGYJZfzKrjClzS-28" target="fGp7b3UGYJZfzKrjClzS-35">
          <mxGeometry relative="1" as="geometry">
            <Array as="points">
              <mxPoint x="364" y="260" />
              <mxPoint x="260" y="260" />
            </Array>
          </mxGeometry>
        </mxCell>
        <mxCell id="fGp7b3UGYJZfzKrjClzS-50" style="edgeStyle=orthogonalEdgeStyle;rounded=0;orthogonalLoop=1;jettySize=auto;html=1;" edge="1" parent="1" source="fGp7b3UGYJZfzKrjClzS-28" target="fGp7b3UGYJZfzKrjClzS-40">
          <mxGeometry relative="1" as="geometry" />
        </mxCell>
        <mxCell id="fGp7b3UGYJZfzKrjClzS-51" style="edgeStyle=orthogonalEdgeStyle;rounded=0;orthogonalLoop=1;jettySize=auto;html=1;" edge="1" parent="1" source="fGp7b3UGYJZfzKrjClzS-28" target="fGp7b3UGYJZfzKrjClzS-41">
          <mxGeometry relative="1" as="geometry">
            <Array as="points">
              <mxPoint x="364" y="260" />
              <mxPoint x="470" y="260" />
            </Array>
          </mxGeometry>
        </mxCell>
        <mxCell id="fGp7b3UGYJZfzKrjClzS-28" value="会员积分计算" style="rounded=1;whiteSpace=wrap;html=1;" vertex="1" parent="1">
          <mxGeometry x="314" y="170" width="100" height="40" as="geometry" />
        </mxCell>
        <mxCell id="fGp7b3UGYJZfzKrjClzS-38" style="edgeStyle=orthogonalEdgeStyle;rounded=0;orthogonalLoop=1;jettySize=auto;html=1;entryX=0.412;entryY=-0.055;entryDx=0;entryDy=0;entryPerimeter=0;" edge="1" parent="1" source="fGp7b3UGYJZfzKrjClzS-31" target="fGp7b3UGYJZfzKrjClzS-36">
          <mxGeometry relative="1" as="geometry" />
        </mxCell>
        <mxCell id="fGp7b3UGYJZfzKrjClzS-39" style="edgeStyle=orthogonalEdgeStyle;rounded=0;orthogonalLoop=1;jettySize=auto;html=1;entryX=0.5;entryY=0;entryDx=0;entryDy=0;" edge="1" parent="1" source="fGp7b3UGYJZfzKrjClzS-31" target="fGp7b3UGYJZfzKrjClzS-37">
          <mxGeometry relative="1" as="geometry" />
        </mxCell>
        <mxCell id="fGp7b3UGYJZfzKrjClzS-31" value="服务队积分计算" style="rounded=1;whiteSpace=wrap;html=1;" vertex="1" parent="1">
          <mxGeometry x="90" y="250" width="100" height="40" as="geometry" />
        </mxCell>
        <mxCell id="fGp7b3UGYJZfzKrjClzS-54" style="edgeStyle=orthogonalEdgeStyle;rounded=0;orthogonalLoop=1;jettySize=auto;html=1;" edge="1" parent="1" source="fGp7b3UGYJZfzKrjClzS-35" target="fGp7b3UGYJZfzKrjClzS-52">
          <mxGeometry relative="1" as="geometry">
            <Array as="points">
              <mxPoint x="260" y="480" />
              <mxPoint x="364" y="480" />
            </Array>
          </mxGeometry>
        </mxCell>
        <mxCell id="fGp7b3UGYJZfzKrjClzS-35" value="基础分计算" style="rounded=1;whiteSpace=wrap;html=1;" vertex="1" parent="1">
          <mxGeometry x="210" y="400" width="100" height="40" as="geometry" />
        </mxCell>
        <mxCell id="fGp7b3UGYJZfzKrjClzS-36" value="基础分计算" style="rounded=1;whiteSpace=wrap;html=1;" vertex="1" parent="1">
          <mxGeometry x="20" y="340" width="100" height="40" as="geometry" />
        </mxCell>
        <mxCell id="fGp7b3UGYJZfzKrjClzS-37" value="人数分计算" style="rounded=1;whiteSpace=wrap;html=1;" vertex="1" parent="1">
          <mxGeometry x="150" y="340" width="100" height="40" as="geometry" />
        </mxCell>
        <mxCell id="fGp7b3UGYJZfzKrjClzS-56" style="edgeStyle=orthogonalEdgeStyle;rounded=0;orthogonalLoop=1;jettySize=auto;html=1;entryX=0.5;entryY=0;entryDx=0;entryDy=0;" edge="1" parent="1" source="fGp7b3UGYJZfzKrjClzS-40" target="fGp7b3UGYJZfzKrjClzS-52">
          <mxGeometry relative="1" as="geometry" />
        </mxCell>
        <mxCell id="fGp7b3UGYJZfzKrjClzS-40" value="时长分计算" style="rounded=1;whiteSpace=wrap;html=1;" vertex="1" parent="1">
          <mxGeometry x="314" y="400" width="100" height="40" as="geometry" />
        </mxCell>
        <mxCell id="fGp7b3UGYJZfzKrjClzS-57" style="edgeStyle=orthogonalEdgeStyle;rounded=0;orthogonalLoop=1;jettySize=auto;html=1;entryX=0.5;entryY=0;entryDx=0;entryDy=0;" edge="1" parent="1" source="fGp7b3UGYJZfzKrjClzS-41" target="fGp7b3UGYJZfzKrjClzS-52">
          <mxGeometry relative="1" as="geometry">
            <Array as="points">
              <mxPoint x="470" y="480" />
              <mxPoint x="364" y="480" />
            </Array>
          </mxGeometry>
        </mxCell>
        <mxCell id="fGp7b3UGYJZfzKrjClzS-41" value="异地分计算" style="rounded=1;whiteSpace=wrap;html=1;" vertex="1" parent="1">
          <mxGeometry x="420" y="400" width="100" height="40" as="geometry" />
        </mxCell>
        <mxCell id="fGp7b3UGYJZfzKrjClzS-60" value="" style="edgeStyle=orthogonalEdgeStyle;rounded=0;orthogonalLoop=1;jettySize=auto;html=1;" edge="1" parent="1" source="fGp7b3UGYJZfzKrjClzS-48" target="fGp7b3UGYJZfzKrjClzS-59">
          <mxGeometry relative="1" as="geometry" />
        </mxCell>
        <mxCell id="fGp7b3UGYJZfzKrjClzS-67" value="" style="edgeStyle=orthogonalEdgeStyle;rounded=0;orthogonalLoop=1;jettySize=auto;html=1;" edge="1" parent="1" source="fGp7b3UGYJZfzKrjClzS-48" target="fGp7b3UGYJZfzKrjClzS-66">
          <mxGeometry relative="1" as="geometry" />
        </mxCell>
        <mxCell id="fGp7b3UGYJZfzKrjClzS-48" value="是否有额外活动角色" style="rhombus;whiteSpace=wrap;html=1;" vertex="1" parent="1">
          <mxGeometry x="332" y="570" width="64" height="60" as="geometry" />
        </mxCell>
        <mxCell id="fGp7b3UGYJZfzKrjClzS-58" value="" style="edgeStyle=orthogonalEdgeStyle;rounded=0;orthogonalLoop=1;jettySize=auto;html=1;" edge="1" parent="1" source="fGp7b3UGYJZfzKrjClzS-52" target="fGp7b3UGYJZfzKrjClzS-48">
          <mxGeometry relative="1" as="geometry" />
        </mxCell>
        <mxCell id="fGp7b3UGYJZfzKrjClzS-52" value="线上参与分计算" style="rounded=1;whiteSpace=wrap;html=1;" vertex="1" parent="1">
          <mxGeometry x="314" y="500" width="100" height="40" as="geometry" />
        </mxCell>
        <mxCell id="fGp7b3UGYJZfzKrjClzS-61" style="edgeStyle=orthogonalEdgeStyle;rounded=0;orthogonalLoop=1;jettySize=auto;html=1;entryX=0.5;entryY=0;entryDx=0;entryDy=0;" edge="1" parent="1" source="fGp7b3UGYJZfzKrjClzS-59" target="fGp7b3UGYJZfzKrjClzS-35">
          <mxGeometry relative="1" as="geometry">
            <mxPoint x="570" y="280" as="targetPoint" />
            <Array as="points">
              <mxPoint x="580" y="600" />
              <mxPoint x="580" y="350" />
              <mxPoint x="260" y="350" />
            </Array>
          </mxGeometry>
        </mxCell>
        <mxCell id="fGp7b3UGYJZfzKrjClzS-62" style="edgeStyle=orthogonalEdgeStyle;rounded=0;orthogonalLoop=1;jettySize=auto;html=1;entryX=0.5;entryY=0;entryDx=0;entryDy=0;" edge="1" parent="1" source="fGp7b3UGYJZfzKrjClzS-59" target="fGp7b3UGYJZfzKrjClzS-40">
          <mxGeometry relative="1" as="geometry">
            <Array as="points">
              <mxPoint x="580" y="600" />
              <mxPoint x="580" y="350" />
              <mxPoint x="364" y="350" />
            </Array>
          </mxGeometry>
        </mxCell>
        <mxCell id="fGp7b3UGYJZfzKrjClzS-63" style="edgeStyle=orthogonalEdgeStyle;rounded=0;orthogonalLoop=1;jettySize=auto;html=1;entryX=0.5;entryY=0;entryDx=0;entryDy=0;" edge="1" parent="1" source="fGp7b3UGYJZfzKrjClzS-59" target="fGp7b3UGYJZfzKrjClzS-41">
          <mxGeometry relative="1" as="geometry">
            <Array as="points">
              <mxPoint x="580" y="600" />
              <mxPoint x="580" y="350" />
              <mxPoint x="470" y="350" />
            </Array>
          </mxGeometry>
        </mxCell>
        <mxCell id="fGp7b3UGYJZfzKrjClzS-59" value="额外角色积分计算" style="rounded=1;whiteSpace=wrap;html=1;" vertex="1" parent="1">
          <mxGeometry x="450" y="580" width="100" height="40" as="geometry" />
        </mxCell>
        <mxCell id="fGp7b3UGYJZfzKrjClzS-70" value="" style="edgeStyle=orthogonalEdgeStyle;rounded=0;orthogonalLoop=1;jettySize=auto;html=1;" edge="1" parent="1" source="fGp7b3UGYJZfzKrjClzS-64" target="fGp7b3UGYJZfzKrjClzS-69">
          <mxGeometry relative="1" as="geometry" />
        </mxCell>
        <mxCell id="fGp7b3UGYJZfzKrjClzS-64" value="额外职务积分计算" style="rounded=1;whiteSpace=wrap;html=1;" vertex="1" parent="1">
          <mxGeometry x="450" y="670" width="100" height="40" as="geometry" />
        </mxCell>
        <mxCell id="fGp7b3UGYJZfzKrjClzS-68" value="" style="edgeStyle=orthogonalEdgeStyle;rounded=0;orthogonalLoop=1;jettySize=auto;html=1;" edge="1" parent="1" source="fGp7b3UGYJZfzKrjClzS-66" target="fGp7b3UGYJZfzKrjClzS-64">
          <mxGeometry relative="1" as="geometry" />
        </mxCell>
        <mxCell id="fGp7b3UGYJZfzKrjClzS-72" value="" style="edgeStyle=orthogonalEdgeStyle;rounded=0;orthogonalLoop=1;jettySize=auto;html=1;" edge="1" parent="1" source="fGp7b3UGYJZfzKrjClzS-66" target="fGp7b3UGYJZfzKrjClzS-71">
          <mxGeometry relative="1" as="geometry" />
        </mxCell>
        <mxCell id="fGp7b3UGYJZfzKrjClzS-66" value="是否有额外活动角色" style="rhombus;whiteSpace=wrap;html=1;" vertex="1" parent="1">
          <mxGeometry x="332" y="660" width="64" height="60" as="geometry" />
        </mxCell>
        <mxCell id="fGp7b3UGYJZfzKrjClzS-73" style="edgeStyle=orthogonalEdgeStyle;rounded=0;orthogonalLoop=1;jettySize=auto;html=1;entryX=0.5;entryY=0;entryDx=0;entryDy=0;" edge="1" parent="1" source="fGp7b3UGYJZfzKrjClzS-69" target="fGp7b3UGYJZfzKrjClzS-71">
          <mxGeometry relative="1" as="geometry" />
        </mxCell>
        <mxCell id="fGp7b3UGYJZfzKrjClzS-69" value="基础分计算" style="rounded=1;whiteSpace=wrap;html=1;" vertex="1" parent="1">
          <mxGeometry x="450" y="750" width="100" height="40" as="geometry" />
        </mxCell>
        <mxCell id="fGp7b3UGYJZfzKrjClzS-75" value="" style="edgeStyle=orthogonalEdgeStyle;rounded=0;orthogonalLoop=1;jettySize=auto;html=1;" edge="1" parent="1" source="fGp7b3UGYJZfzKrjClzS-71" target="fGp7b3UGYJZfzKrjClzS-74">
          <mxGeometry relative="1" as="geometry" />
        </mxCell>
        <mxCell id="fGp7b3UGYJZfzKrjClzS-71" value="其他录入分计算" style="rounded=1;whiteSpace=wrap;html=1;" vertex="1" parent="1">
          <mxGeometry x="314" y="810" width="100" height="40" as="geometry" />
        </mxCell>
        <mxCell id="fGp7b3UGYJZfzKrjClzS-74" value="总分合计更新" style="rounded=1;whiteSpace=wrap;html=1;" vertex="1" parent="1">
          <mxGeometry x="314" y="900" width="100" height="40" as="geometry" />
        </mxCell>
        <mxCell id="fGp7b3UGYJZfzKrjClzS-76" value="yes" style="text;html=1;strokeColor=none;fillColor=none;align=center;verticalAlign=middle;whiteSpace=wrap;rounded=0;" vertex="1" parent="1">
          <mxGeometry x="390" y="570" width="60" height="30" as="geometry" />
        </mxCell>
        <mxCell id="fGp7b3UGYJZfzKrjClzS-77" value="yes" style="text;html=1;strokeColor=none;fillColor=none;align=center;verticalAlign=middle;whiteSpace=wrap;rounded=0;" vertex="1" parent="1">
          <mxGeometry x="390" y="660" width="60" height="30" as="geometry" />
        </mxCell>
        <mxCell id="fGp7b3UGYJZfzKrjClzS-78" value="no" style="text;html=1;strokeColor=none;fillColor=none;align=center;verticalAlign=middle;whiteSpace=wrap;rounded=0;" vertex="1" parent="1">
          <mxGeometry x="354" y="620" width="60" height="30" as="geometry" />
        </mxCell>
        <mxCell id="fGp7b3UGYJZfzKrjClzS-79" value="no" style="text;html=1;strokeColor=none;fillColor=none;align=center;verticalAlign=middle;whiteSpace=wrap;rounded=0;" vertex="1" parent="1">
          <mxGeometry x="354" y="710" width="60" height="30" as="geometry" />
        </mxCell>
      </root>
    </mxGraphModel>
  </diagram>
</mxfile>
